<?xml version="1.0" encoding="UTF-8"?>
<svg xmlns="http://www.w3.org/2000/svg" xmlns:xlink="http://www.w3.org/1999/xlink" width="2250pt" height="637500pt" viewBox="0 0 2250 637500" version="1.1">
<g id="surface16">
<path style="fill:none;stroke-width:1;stroke-linecap:round;stroke-linejoin:round;stroke:rgb(0%,0%,0%);stroke-opacity:0.196078;stroke-miterlimit:4;" d="M 30.875 63.138292 C 17.075195 63.138292 5.875109 81.058431 5.875109 103.138401 C 5.875109 125.21837 17.075195 143.138509 30.875 143.138509 C 44.674805 143.138509 55.874891 125.21837 55.874891 103.138401 C 55.874891 81.058431 44.674805 63.138292 30.875 63.138292 Z M 20.875326 93.138021 C 26.394965 93.138021 30.875 97.618056 30.875 103.138401 C 30.875 108.65804 26.394965 113.138075 20.875326 113.138075 C 15.35498 113.138075 10.874946 108.65804 10.874946 103.138401 C 10.874946 97.618056 15.35498 93.138021 20.875326 93.138021 Z M 20.875326 93.138021 " transform="matrix(5.538462,0,0,5.538462,0,318178.846154)"/>
<path style=" stroke:none;fill-rule:evenodd;fill:rgb(62.352941%,62.352941%,62.352941%);fill-opacity:1;" d="M 1037.796875 318257.078125 L 1713.902344 318257.078125 C 1731.769531 318257.078125 1746.882812 318284.015625 1746.882812 318289.40625 C 1829.335938 318472.585938 1829.335938 319011.355469 1746.882812 319194.539062 C 1746.882812 319199.925781 1735.890625 319228.210938 1713.902344 319226.863281 L 1037.796875 319226.863281 C 1019.523438 319226.863281 1004.816406 319212.449219 1004.816406 319194.539062 L 1004.816406 318289.40625 C 1004.816406 318271.496094 1019.523438 318257.078125 1037.796875 318257.078125 Z M 1037.796875 318257.078125 "/>
<path style="fill-rule:evenodd;fill:rgb(98.039216%,98.039216%,98.039216%);fill-opacity:1;stroke-width:1;stroke-linecap:round;stroke-linejoin:round;stroke:rgb(0%,0%,0%);stroke-opacity:0.392157;stroke-miterlimit:4;" d="M 53.038194 13.121582 C 50.483615 13.121582 48.493978 20.730306 46.991699 32.448079 L 182.969076 32.448079 C 179.963813 20.730306 175.984538 13.121582 170.87538 13.121582 C 129.528863 13.121582 94.384711 13.121582 53.038194 13.121582 Z M 53.038194 13.121582 " transform="matrix(5.538462,0,0,5.538462,0,318178.846154)"/>
<path style=" stroke:none;fill-rule:evenodd;fill:rgb(0%,0%,0%);fill-opacity:0.5;" d="M 358.011719 318401.078125 C 380.953125 318401.078125 399.550781 318599.902344 399.550781 318761.078125 C 399.550781 318959.902344 380.953125 319121.078125 358.011719 319121.078125 C 335.070312 319121.078125 316.472656 318922.253906 316.472656 318761.078125 C 316.472656 318562.253906 335.070312 318401.078125 358.011719 318401.078125 Z M 358.011719 318401.078125 "/>
<path style="fill:none;stroke-width:1;stroke-linecap:round;stroke-linejoin:round;stroke:rgb(0%,0%,0%);stroke-opacity:0.392157;stroke-miterlimit:4;" d="M 46.991699 172.638184 C 48.493978 184.751628 50.485026 192.638238 53.038194 192.638238 C 94.384711 192.638238 129.528863 192.638238 170.874674 192.638238 C 175.981717 192.638238 179.964518 184.752333 182.969076 172.638184 Z M 46.991699 172.638184 " transform="matrix(5.538462,0,0,5.538462,0,318178.846154)"/>
<path style="fill:none;stroke-width:1.25;stroke-linecap:round;stroke-linejoin:round;stroke:rgb(0%,0%,0%);stroke-opacity:0.470588;stroke-miterlimit:4;" d="M 320.250543 115.585449 C 320.250543 149.736545 292.576172 177.42079 258.438477 177.42079 C 224.300781 177.42079 196.626411 149.736545 196.626411 115.585449 C 196.626411 81.435059 224.300781 53.750109 258.438477 53.750109 C 292.576172 53.750109 320.250543 81.435059 320.250543 115.585449 Z M 320.250543 115.585449 " transform="matrix(5.538462,0,0,5.538462,0,318178.846154)"/>
<path style=" stroke:none;fill-rule:evenodd;fill:rgb(0%,0%,0%);fill-opacity:1;" d="M 1716.363281 318819.011719 C 1716.363281 318976.480469 1588.757812 319104.132812 1431.347656 319104.132812 C 1273.941406 319104.132812 1146.335938 318976.480469 1146.335938 318819.011719 C 1146.335938 318661.546875 1273.941406 318533.890625 1431.347656 318533.890625 C 1588.757812 318533.890625 1716.363281 318661.546875 1716.363281 318819.011719 Z M 1716.363281 318819.011719 "/>
<path style=" stroke:none;fill-rule:evenodd;fill:rgb(31.372549%,31.372549%,31.372549%);fill-opacity:1;" d="M 1648.539062 318819.011719 C 1648.539062 318939.007812 1551.296875 319036.285156 1431.347656 319036.285156 C 1311.398438 319036.285156 1214.160156 318939.007812 1214.160156 318819.011719 C 1214.160156 318699.019531 1311.398438 318601.742188 1431.347656 318601.742188 C 1551.296875 318601.742188 1648.539062 318699.019531 1648.539062 318819.011719 Z M 1648.539062 318819.011719 "/>
<path style=" stroke:none;fill-rule:evenodd;fill:rgb(0%,0%,0%);fill-opacity:1;" d="M 1302.578125 318668.144531 C 1259.320312 318704.871094 1231.269531 318758.941406 1231.269531 318820.105469 C 1231.269531 318881.640625 1259.726562 318936.027344 1303.441406 318972.757812 L 1559.25 318972.757812 C 1602.96875 318936.027344 1631.421875 318881.640625 1631.421875 318820.105469 C 1631.421875 318758.941406 1603.371094 318704.871094 1560.117188 318668.144531 Z M 1302.578125 318668.144531 "/>
<path style=" stroke:none;fill-rule:evenodd;fill:rgb(9.803922%,9.803922%,9.803922%);fill-opacity:1;" d="M 1313.414062 318677.152344 C 1273.800781 318711.707031 1248.109375 318762.582031 1248.109375 318820.125 C 1248.109375 318878.023438 1274.167969 318929.191406 1314.207031 318963.75 L 1548.484375 318963.75 C 1588.523438 318929.191406 1614.582031 318878.023438 1614.582031 318820.125 C 1614.582031 318762.582031 1588.894531 318711.707031 1549.277344 318677.152344 Z M 1313.414062 318677.152344 "/>
<path style=" stroke:none;fill-rule:evenodd;fill:rgb(0%,0%,0%);fill-opacity:0.54902;" d="M 2133.238281 318439.054688 C 2117.171875 318486.894531 2105.546875 318613.675781 2105.546875 318763.917969 C 2105.546875 318914.164062 2117.171875 319040.769531 2133.238281 319088.613281 Z M 2133.238281 318439.054688 "/>
<path style="fill:none;stroke-width:0.625;stroke-linecap:butt;stroke-linejoin:miter;stroke:rgb(100%,100%,100%);stroke-opacity:0.196078;stroke-miterlimit:4;" d="M -142.773872 123.016168 C -143.003798 123.91824 -143.417806 124.58827 -144.015896 125.025553 C -144.613281 125.462836 -145.415907 125.682183 -146.423774 125.682183 C -147.900662 125.682183 -149.06722 125.274523 -149.924859 124.459907 C -150.782498 123.645996 -151.211317 122.541504 -151.211317 121.14643 C -151.211317 119.748535 -150.782498 118.641927 -149.924859 117.827311 C -149.06722 117.012695 -147.900662 116.60574 -146.423774 116.60574 C -145.904677 116.60574 -145.363715 116.668511 -144.80089 116.793349 C -144.23877 116.918186 -143.642795 117.10791 -143.013672 117.361816 L -143.013672 119.512261 L -143.757758 119.512261 C -143.910102 118.777344 -144.187988 118.227919 -144.590007 117.862576 C -144.992025 117.497233 -145.523817 117.314562 -146.183974 117.314562 C -147.035265 117.314562 -147.667914 117.628418 -148.081923 118.255425 C -148.495931 118.882433 -148.703288 119.845866 -148.703288 121.14643 C -148.703288 122.4477 -148.495931 123.410428 -148.081923 124.035319 C -147.667914 124.660211 -147.031738 124.972656 -146.171984 124.972656 C -145.590115 124.972656 -145.114746 124.811144 -144.745171 124.486708 C -144.376302 124.162272 -144.107585 123.672092 -143.939724 123.016168 Z M -135.543186 121.685981 L -135.543186 124.80268 L -134.652398 124.80268 L -134.652398 125.512207 L -137.617459 125.512207 L -137.617459 124.720866 C -137.891113 125.048828 -138.195801 125.29145 -138.531521 125.44732 C -138.867242 125.603895 -139.250217 125.682183 -139.679742 125.682183 C -140.316623 125.682183 -140.806098 125.510796 -141.147461 125.169434 C -141.489529 124.827365 -141.660211 124.337891 -141.660211 123.701714 C -141.660211 123.002062 -141.415473 122.478733 -140.925293 122.131022 C -140.434408 121.783312 -139.695258 121.609809 -138.70714 121.609809 L -137.617459 121.609809 L -137.617459 121.240234 C -137.617459 120.736654 -137.736654 120.364258 -137.975043 120.124457 C -138.212728 119.883952 -138.582303 119.764052 -139.082357 119.764052 C -139.496365 119.764052 -139.815864 119.848687 -140.040148 120.018663 C -140.265137 120.188639 -140.423828 120.467231 -140.517632 120.853733 L -141.179905 120.853733 L -141.179905 119.512261 C -140.808919 119.378961 -140.423828 119.279514 -140.025336 119.213216 C -139.626845 119.146918 -139.207194 119.11377 -138.765679 119.11377 C -137.652724 119.11377 -136.837402 119.320421 -136.319716 119.734429 C -135.802029 120.148437 -135.543186 120.799425 -135.543186 121.685981 Z M -137.617459 123.555013 L -137.617459 122.306641 L -138.39681 122.306641 C -138.783312 122.306641 -139.080241 122.412435 -139.287598 122.623318 C -139.494249 122.834201 -139.597928 123.136773 -139.597928 123.531738 C -139.597928 123.925998 -139.522461 124.220812 -139.372233 124.416178 C -139.222005 124.611545 -138.992079 124.709581 -138.683865 124.709581 C -138.363661 124.709581 -138.105523 124.603787 -137.910156 124.392904 C -137.714789 124.18202 -137.617459 123.902724 -137.617459 123.555013 Z M -127.088108 120.302897 C -126.798937 119.888889 -126.486491 119.587023 -126.15077 119.398003 C -125.814345 119.208279 -125.422201 119.11377 -124.972928 119.11377 C -124.257758 119.11377 -123.72385 119.315484 -123.370497 119.720323 C -123.016439 120.124457 -122.840115 120.734538 -122.840115 121.55127 L -122.840115 124.80268 L -121.949327 124.80268 L -121.949327 125.512207 L -125.658474 125.512207 L -125.658474 124.80268 L -124.914388 124.80268 L -124.914388 121.861599 C -124.914388 121.084364 -124.973633 120.594184 -125.092828 120.391059 C -125.212023 120.187934 -125.433485 120.086372 -125.757921 120.086372 C -126.12538 120.086372 -126.410319 120.228136 -126.613444 120.510959 C -126.816569 120.794488 -126.918132 121.197211 -126.918132 121.721246 L -126.918132 124.80268 L -126.174045 124.80268 L -126.174045 125.512207 L -129.736491 125.512207 L -129.736491 124.80268 L -128.992405 124.80268 L -128.992405 121.861599 C -128.992405 121.084364 -129.05306 120.594184 -129.173665 120.391059 C -129.294976 120.187934 -129.515734 120.086372 -129.835937 120.086372 C -130.206923 120.086372 -130.493978 120.228136 -130.697103 120.510959 C -130.900228 120.794488 -131.00179 121.197211 -131.00179 121.721246 L -131.00179 124.80268 L -130.257704 124.80268 L -130.257704 125.512207 L -133.961209 125.512207 L -133.961209 124.80268 L -133.076063 124.80268 L -133.076063 119.992567 L -133.961209 119.992567 L -133.961209 119.283746 L -131.00179 119.283746 L -131.00179 120.162543 C -130.759874 119.799316 -130.482693 119.53342 -130.170247 119.36556 C -129.857802 119.1977 -129.486816 119.11377 -129.056586 119.11377 C -128.548774 119.11377 -128.136882 119.210395 -127.820204 119.403646 C -127.504232 119.596897 -127.2602 119.896647 -127.088108 120.302897 Z M -116.857802 121.996311 C -116.857802 121.176053 -116.933974 120.600532 -117.086317 120.270454 C -117.238661 119.940375 -117.49821 119.775336 -117.865668 119.775336 C -118.221137 119.775336 -118.475749 119.937554 -118.630208 120.26199 C -118.784668 120.586426 -118.861545 121.129503 -118.861545 121.891222 L -118.861545 121.996311 Z M -114.578288 122.693848 L -118.861545 122.693848 L -118.861545 122.740397 C -118.861545 123.545139 -118.740234 124.126302 -118.498318 124.483887 C -118.255697 124.840766 -117.865668 125.019911 -117.326118 125.019911 C -116.876845 125.019911 -116.513618 124.900716 -116.236437 124.662326 C -115.959256 124.423937 -115.781521 124.078342 -115.703234 123.625543 L -114.730632 123.625543 C -114.898492 124.332248 -115.232802 124.852051 -115.732856 125.183539 C -116.23291 125.515734 -116.931858 125.682183 -117.830404 125.682183 C -118.908095 125.682183 -119.735406 125.397949 -120.311632 124.829481 C -120.887858 124.261013 -121.175618 123.449219 -121.175618 122.394803 C -121.175618 121.363661 -120.880805 120.558919 -120.291178 119.980577 C -119.701552 119.402941 -118.881293 119.11377 -117.830404 119.11377 C -116.799262 119.11377 -116.007921 119.417046 -115.457086 120.025011 C -114.90625 120.63227 -114.613553 121.521647 -114.578288 122.693848 Z M -107.582465 119.213216 L -107.582465 121.070258 L -108.244032 121.070258 C -108.268012 120.73877 -108.357585 120.491211 -108.51416 120.329698 C -108.67003 120.16748 -108.89643 120.086372 -109.193359 120.086372 C -109.646864 120.086372 -110.003743 120.285265 -110.266113 120.683757 C -110.527778 121.082248 -110.658257 121.6352 -110.658257 122.341905 L -110.658257 124.80268 L -109.527669 124.80268 L -109.527669 125.512207 L -113.617676 125.512207 L -113.617676 124.80268 L -112.73253 124.80268 L -112.73253 119.992567 L -113.681858 119.992567 L -113.681858 119.283746 L -110.658257 119.283746 L -110.658257 120.391059 C -110.455132 119.957303 -110.186415 119.635688 -109.85281 119.426921 C -109.5185 119.218153 -109.109429 119.11377 -108.624891 119.11377 C -108.504286 119.11377 -108.356879 119.122233 -108.182671 119.139865 C -108.009169 119.157498 -107.808865 119.182183 -107.582465 119.213216 Z M -101.090224 121.685981 L -101.090224 124.80268 L -100.199436 124.80268 L -100.199436 125.512207 L -103.164497 125.512207 L -103.164497 124.720866 C -103.437446 125.048828 -103.742133 125.29145 -104.078559 125.44732 C -104.41428 125.603895 -104.797255 125.682183 -105.22678 125.682183 C -105.863661 125.682183 -106.352431 125.510796 -106.694499 125.169434 C -107.036567 124.827365 -107.207248 124.337891 -107.207248 123.701714 C -107.207248 123.002062 -106.961806 122.478733 -106.471625 122.131022 C -105.981445 121.783312 -105.242296 121.609809 -104.254178 121.609809 L -103.164497 121.609809 L -103.164497 121.240234 C -103.164497 120.736654 -103.283691 120.364258 -103.521376 120.124457 C -103.759766 119.883952 -104.12934 119.764052 -104.629395 119.764052 C -105.043403 119.764052 -105.362196 119.848687 -105.587185 120.018663 C -105.811469 120.188639 -105.970866 120.467231 -106.06467 120.853733 L -106.726942 120.853733 L -106.726942 119.512261 C -106.355957 119.378961 -105.970866 119.279514 -105.572374 119.213216 C -105.173882 119.146918 -104.754232 119.11377 -104.312717 119.11377 C -103.199056 119.11377 -102.383735 119.320421 -101.866048 119.734429 C -101.349067 120.148437 -101.090224 120.799425 -101.090224 121.685981 Z M -103.164497 123.555013 L -103.164497 122.306641 L -103.943848 122.306641 C -104.330349 122.306641 -104.627279 122.412435 -104.83393 122.623318 C -105.041287 122.834201 -105.144965 123.136773 -105.144965 123.531738 C -105.144965 123.925998 -105.069499 124.220812 -104.919271 124.416178 C -104.769043 124.611545 -104.539117 124.709581 -104.230903 124.709581 C -103.909993 124.709581 -103.652561 124.603787 -103.457194 124.392904 C -103.261827 124.18202 -103.164497 123.902724 -103.164497 123.555013 Z M -103.164497 123.555013 " transform="matrix(0,-5.538462,5.538462,0,0,318178.846154)"/>
<path style="fill:none;stroke-width:0.625;stroke-linecap:butt;stroke-linejoin:miter;stroke:rgb(0%,0%,0%);stroke-opacity:0.196078;stroke-miterlimit:4;" d="M -141.359755 121.602051 C -141.590386 122.504123 -142.004395 123.174154 -142.60178 123.611437 C -143.199164 124.049425 -144.002496 124.268066 -145.009657 124.268066 C -146.486545 124.268066 -147.653809 123.860406 -148.510742 123.046495 C -149.368381 122.231879 -149.797201 121.127387 -149.797201 119.733019 C -149.797201 118.334418 -149.368381 117.22781 -148.510742 116.413194 C -147.653809 115.599284 -146.486545 115.191623 -145.009657 115.191623 C -144.49056 115.191623 -143.949599 115.254395 -143.386773 115.379232 C -142.824653 115.504069 -142.228678 115.693793 -141.599555 115.9477 L -141.599555 118.098145 L -142.343641 118.098145 C -142.495985 117.363932 -142.773872 116.813802 -143.17589 116.448459 C -143.578613 116.083116 -144.109701 115.900445 -144.769857 115.900445 C -145.621148 115.900445 -146.253798 116.214301 -146.668511 116.841309 C -147.08252 117.468316 -147.289171 118.431749 -147.289171 119.733019 C -147.289171 121.033583 -147.08252 121.996311 -146.668511 122.621202 C -146.253798 123.246799 -145.617622 123.559245 -144.757867 123.559245 C -144.175998 123.559245 -143.700629 123.397027 -143.331055 123.072591 C -142.962185 122.748155 -142.693468 122.257975 -142.525608 121.602051 Z M -134.129069 120.271864 L -134.129069 123.389269 L -133.238281 123.389269 L -133.238281 124.09809 L -136.203342 124.09809 L -136.203342 123.306749 C -136.476997 123.635417 -136.781684 123.877333 -137.117405 124.033203 C -137.453125 124.189779 -137.8361 124.268066 -138.265625 124.268066 C -138.902507 124.268066 -139.391981 124.09668 -139.733344 123.755317 C -140.075412 123.413249 -140.246094 122.924479 -140.246094 122.287598 C -140.246094 121.587945 -140.001356 121.064616 -139.511176 120.716905 C -139.020996 120.369195 -138.281141 120.195692 -137.293023 120.195692 L -136.203342 120.195692 L -136.203342 119.826823 C -136.203342 119.322537 -136.322537 118.950846 -136.560927 118.710341 C -136.799316 118.469835 -137.168186 118.349935 -137.66824 118.349935 C -138.082248 118.349935 -138.401747 118.435276 -138.626031 118.604546 C -138.85102 118.774523 -139.009711 119.053114 -139.103516 119.439616 L -139.765788 119.439616 L -139.765788 118.098145 C -139.394803 117.965549 -139.009711 117.865397 -138.61122 117.799099 C -138.213433 117.732802 -137.793077 117.699653 -137.351562 117.699653 C -136.238607 117.699653 -135.423286 117.906304 -134.905599 118.320312 C -134.387912 118.735026 -134.129069 119.385308 -134.129069 120.271864 Z M -136.203342 122.140896 L -136.203342 120.893229 L -136.982693 120.893229 C -137.369195 120.893229 -137.666124 120.998318 -137.873481 121.209201 C -138.080132 121.420085 -138.183811 121.723362 -138.183811 122.117622 C -138.183811 122.511882 -138.108344 122.806695 -137.958116 123.002062 C -137.807888 123.197428 -137.578668 123.295464 -137.269748 123.295464 C -136.949544 123.295464 -136.691406 123.18967 -136.496039 122.978787 C -136.300673 122.767904 -136.203342 122.488607 -136.203342 122.140896 Z M -125.673991 118.88878 C -125.38482 118.474772 -125.072374 118.172906 -124.736654 117.983887 C -124.400933 117.794162 -124.008084 117.699653 -123.558811 117.699653 C -122.843641 117.699653 -122.309733 117.902072 -121.95638 118.306207 C -121.603027 118.710341 -121.425998 119.320421 -121.425998 120.137153 L -121.425998 123.389269 L -120.535211 123.389269 L -120.535211 124.09809 L -124.244358 124.09809 L -124.244358 123.389269 L -123.500271 123.389269 L -123.500271 120.447483 C -123.500271 119.670247 -123.559516 119.180067 -123.678711 118.976942 C -123.797906 118.773817 -124.020074 118.672255 -124.343804 118.672255 C -124.711263 118.672255 -124.996202 118.814019 -125.199327 119.096842 C -125.402452 119.380371 -125.504015 119.7838 -125.504015 120.307129 L -125.504015 123.389269 L -124.759928 123.389269 L -124.759928 124.09809 L -128.322374 124.09809 L -128.322374 123.389269 L -127.578288 123.389269 L -127.578288 120.447483 C -127.578288 119.670247 -127.638943 119.180067 -127.760254 118.976942 C -127.880859 118.773817 -128.101617 118.672255 -128.421821 118.672255 C -128.793511 118.672255 -129.080566 118.814019 -129.283691 119.096842 C -129.486816 119.380371 -129.588379 119.7838 -129.588379 120.307129 L -129.588379 123.389269 L -128.844293 123.389269 L -128.844293 124.09809 L -132.547092 124.09809 L -132.547092 123.389269 L -131.662652 123.389269 L -131.662652 118.578451 L -132.547092 118.578451 L -132.547092 117.869629 L -129.588379 117.869629 L -129.588379 118.748427 C -129.345757 118.3852 -129.068576 118.119303 -128.756131 117.951443 C -128.443685 117.783583 -128.0727 117.699653 -127.64247 117.699653 C -127.134657 117.699653 -126.722765 117.796278 -126.406793 117.989529 C -126.090115 118.18278 -125.846083 118.48253 -125.673991 118.88878 Z M -115.443685 120.582194 C -115.443685 119.761936 -115.519857 119.18712 -115.672201 118.857042 C -115.824544 118.526964 -116.084093 118.361925 -116.451552 118.361925 C -116.80702 118.361925 -117.061632 118.523437 -117.216092 118.847873 C -117.370551 119.172309 -117.447428 119.715386 -117.447428 120.477105 L -117.447428 120.582194 Z M -113.164171 121.279731 L -117.447428 121.279731 L -117.447428 121.32628 C -117.447428 122.131022 -117.326118 122.712185 -117.084201 123.06977 C -116.842285 123.427355 -116.451552 123.605794 -115.912001 123.605794 C -115.463433 123.605794 -115.099501 123.486599 -114.82232 123.24821 C -114.545139 123.00982 -114.367405 122.664225 -114.289117 122.211426 L -113.316515 122.211426 C -113.484375 122.918132 -113.818685 123.437934 -114.318739 123.770128 C -114.818793 124.101617 -115.517741 124.268066 -116.416287 124.268066 C -117.494683 124.268066 -118.321289 123.983832 -118.897515 123.415365 C -119.473741 122.846897 -119.762207 122.035807 -119.762207 120.980686 C -119.762207 119.949544 -119.466688 119.144803 -118.877062 118.566461 C -118.287435 117.988824 -117.467177 117.699653 -116.416287 117.699653 C -115.385145 117.699653 -114.593804 118.003635 -114.042969 118.610894 C -113.492133 119.218153 -113.199436 120.10753 -113.164171 121.279731 Z M -106.168349 117.799099 L -106.168349 119.656847 L -106.830621 119.656847 C -106.853895 119.324653 -106.943468 119.077799 -107.100043 118.915582 C -107.255914 118.753364 -107.482313 118.672255 -107.779243 118.672255 C -108.232747 118.672255 -108.590332 118.871148 -108.851997 119.26964 C -109.113661 119.668132 -109.244141 120.221083 -109.244141 120.927789 L -109.244141 123.389269 L -108.113553 123.389269 L -108.113553 124.09809 L -112.203559 124.09809 L -112.203559 123.389269 L -111.318414 123.389269 L -111.318414 118.578451 L -112.267741 118.578451 L -112.267741 117.869629 L -109.244141 117.869629 L -109.244141 118.976942 C -109.041016 118.543186 -108.773003 118.222276 -108.438694 118.012804 C -108.104384 117.804036 -107.695312 117.699653 -107.21148 117.699653 C -107.090169 117.699653 -106.942763 117.708116 -106.768555 117.725749 C -106.595052 117.743381 -106.394748 117.768066 -106.168349 117.799099 Z M -99.676107 120.271864 L -99.676107 123.389269 L -98.785319 123.389269 L -98.785319 124.09809 L -101.75038 124.09809 L -101.75038 123.306749 C -102.023329 123.635417 -102.328016 123.877333 -102.664442 124.033203 C -103.000163 124.189779 -103.383138 124.268066 -103.812663 124.268066 C -104.449544 124.268066 -104.939019 124.09668 -105.280382 123.755317 C -105.62245 123.413249 -105.793132 122.924479 -105.793132 122.287598 C -105.793132 121.587945 -105.548394 121.064616 -105.057509 120.716905 C -104.567329 120.369195 -103.828179 120.195692 -102.840061 120.195692 L -101.75038 120.195692 L -101.75038 119.826823 C -101.75038 119.322537 -101.869575 118.950846 -102.107964 118.710341 C -102.345649 118.469835 -102.715224 118.349935 -103.215278 118.349935 C -103.629286 118.349935 -103.948785 118.435276 -104.173069 118.604546 C -104.397352 118.774523 -104.556749 119.053114 -104.650553 119.439616 L -105.312826 119.439616 L -105.312826 118.098145 C -104.94184 117.965549 -104.556749 117.865397 -104.158257 117.799099 C -103.759766 117.732802 -103.340115 117.699653 -102.8986 117.699653 C -101.785645 117.699653 -100.969618 117.906304 -100.452637 118.320312 C -99.93495 118.735026 -99.676107 119.385308 -99.676107 120.271864 Z M -101.75038 122.140896 L -101.75038 120.893229 L -102.529731 120.893229 C -102.916233 120.893229 -103.213162 120.998318 -103.419813 121.209201 C -103.62717 121.420085 -103.730849 121.723362 -103.730849 122.117622 C -103.730849 122.511882 -103.655382 122.806695 -103.505154 123.002062 C -103.354926 123.197428 -103.125 123.295464 -102.816786 123.295464 C -102.496582 123.295464 -102.238444 123.18967 -102.043077 122.978787 C -101.847711 122.767904 -101.75038 122.488607 -101.75038 122.140896 Z M -101.75038 122.140896 " transform="matrix(0,-5.538462,5.538462,0,0,318178.846154)"/>
<path style="fill:none;stroke-width:0.625;stroke-linecap:butt;stroke-linejoin:miter;stroke:rgb(0%,0%,0%);stroke-opacity:0.784314;stroke-miterlimit:4;" d="M -141.859809 122.102105 C -142.089735 123.004178 -142.504449 123.674208 -143.101834 124.111491 C -143.699219 124.549479 -144.501845 124.768121 -145.509711 124.768121 C -146.986599 124.768121 -148.153863 124.36046 -149.010796 123.546549 C -149.868435 122.731934 -150.297255 121.627441 -150.297255 120.233073 C -150.297255 118.834473 -149.868435 117.727865 -149.010796 116.913249 C -148.153863 116.099338 -146.986599 115.691678 -145.509711 115.691678 C -144.990614 115.691678 -144.449653 115.754449 -143.886827 115.879286 C -143.324707 116.004123 -142.728733 116.193848 -142.099609 116.447754 L -142.099609 118.598199 L -142.843696 118.598199 C -142.996039 117.863987 -143.273926 117.313856 -143.675944 116.948513 C -144.078668 116.583171 -144.609755 116.400499 -145.269911 116.400499 C -146.121202 116.400499 -146.753852 116.714355 -147.16786 117.341363 C -147.582574 117.96837 -147.789225 118.931803 -147.789225 120.233073 C -147.789225 121.533637 -147.582574 122.496365 -147.16786 123.121257 C -146.753852 123.746148 -146.117676 124.059299 -145.257921 124.058594 C -144.676053 124.059299 -144.200684 123.897081 -143.831109 123.572645 C -143.46224 123.24821 -143.193522 122.75803 -143.025662 122.102105 Z M -134.629123 120.771918 L -134.629123 123.889323 L -133.738336 123.889323 L -133.738336 124.598145 L -136.703396 124.598145 L -136.703396 123.806803 C -136.977051 124.135471 -137.281738 124.377387 -137.617459 124.533257 C -137.953179 124.689833 -138.336155 124.768121 -138.765679 124.768121 C -139.402561 124.768121 -139.892036 124.596734 -140.233398 124.255371 C -140.575467 123.913303 -140.746148 123.423828 -140.746148 122.787652 C -140.746148 122.087999 -140.501411 121.56467 -140.01123 121.21696 C -139.52105 120.869249 -138.781196 120.695747 -137.793077 120.695747 L -136.703396 120.695747 L -136.703396 120.326172 C -136.703396 119.822591 -136.822591 119.450901 -137.060981 119.210395 C -137.299371 118.969889 -137.66824 118.849989 -138.168294 118.849989 C -138.582303 118.849989 -138.901801 118.934625 -139.126085 119.104601 C -139.351074 119.274577 -139.509766 119.553168 -139.60357 119.93967 L -140.265842 119.93967 L -140.265842 118.598199 C -139.894857 118.464898 -139.509766 118.365451 -139.111274 118.299154 C -138.712782 118.232856 -138.293132 118.199707 -137.851617 118.199707 C -136.738661 118.199707 -135.92334 118.406359 -135.405653 118.820367 C -134.887967 119.23508 -134.629123 119.885362 -134.629123 120.771918 Z M -136.703396 122.640951 L -136.703396 121.392578 L -137.482747 121.392578 C -137.869249 121.392578 -138.166178 121.498372 -138.373535 121.709256 C -138.580187 121.920139 -138.683865 122.222711 -138.683865 122.617676 C -138.683865 123.011936 -138.608398 123.306749 -138.458171 123.502116 C -138.307943 123.697483 -138.078016 123.795519 -137.769803 123.795519 C -137.449599 123.795519 -137.191461 123.689724 -136.996094 123.478841 C -136.800727 123.267958 -136.703396 122.988661 -136.703396 122.640951 Z M -126.174045 119.388835 C -125.884874 118.974826 -125.572428 118.67296 -125.236708 118.483941 C -124.900282 118.294217 -124.508138 118.199707 -124.058865 118.199707 C -123.343696 118.199707 -122.809787 118.401421 -122.456434 118.806261 C -122.103082 119.210395 -121.926053 119.820475 -121.926053 120.637207 L -121.926053 123.889323 L -121.035265 123.889323 L -121.035265 124.598145 L -124.744412 124.598145 L -124.744412 123.889323 L -124.000326 123.889323 L -124.000326 120.947537 C -124.000326 120.170302 -124.05957 119.680122 -124.178765 119.476997 C -124.29796 119.273872 -124.519423 119.172309 -124.843859 119.172309 C -125.211317 119.172309 -125.496257 119.314073 -125.699382 119.596897 C -125.902507 119.880425 -126.004069 120.283854 -126.004069 120.807183 L -126.004069 123.889323 L -125.259983 123.889323 L -125.259983 124.598145 L -128.822428 124.598145 L -128.822428 123.889323 L -128.078342 123.889323 L -128.078342 120.947537 C -128.078342 120.170302 -128.138997 119.680122 -128.260308 119.476997 C -128.380914 119.273872 -128.601671 119.172309 -128.921875 119.172309 C -129.29286 119.172309 -129.580621 119.314073 -129.783746 119.596897 C -129.986871 119.880425 -130.088433 120.283854 -130.088433 120.807183 L -130.088433 123.889323 L -129.343641 123.889323 L -129.343641 124.598145 L -133.047146 124.598145 L -133.047146 123.889323 L -132.162001 123.889323 L -132.162001 119.078505 L -133.047146 119.078505 L -133.047146 118.369683 L -130.088433 118.369683 L -130.088433 119.248481 C -129.845812 118.885254 -129.568631 118.619358 -129.256185 118.451497 C -128.943739 118.283637 -128.572754 118.199707 -128.142524 118.199707 C -127.634711 118.199707 -127.222819 118.296332 -126.906141 118.489583 C -126.590169 118.682834 -126.346137 118.982585 -126.174045 119.388835 Z M -115.943739 121.082248 C -115.943739 120.26199 -116.019911 119.687174 -116.172255 119.357096 C -116.324599 119.027018 -116.584147 118.861979 -116.951606 118.861979 C -117.307075 118.861979 -117.561686 119.023492 -117.716146 119.347928 C -117.870605 119.672363 -117.947483 120.215441 -117.947483 120.977159 L -117.947483 121.082248 Z M -113.664225 121.779785 L -117.947483 121.779785 L -117.947483 121.826335 C -117.947483 122.631076 -117.826172 123.21224 -117.584256 123.569824 C -117.342339 123.927409 -116.951606 124.105849 -116.412055 124.105849 C -115.962782 124.105849 -115.599555 123.986654 -115.322374 123.748264 C -115.045193 123.509874 -114.867459 123.16428 -114.789171 122.71148 L -113.816569 122.71148 C -113.984429 123.418186 -114.318739 123.937988 -114.818793 124.270182 C -115.318848 124.601671 -116.017795 124.768121 -116.916341 124.768121 C -117.994032 124.768121 -118.821343 124.483887 -119.397569 123.915419 C -119.973796 123.346951 -120.262261 122.535862 -120.262261 121.48074 C -120.262261 120.449599 -119.966743 119.644857 -119.377116 119.066515 C -118.787489 118.488878 -117.967231 118.199707 -116.916341 118.199707 C -115.8852 118.199707 -115.093859 118.502984 -114.543023 119.110948 C -113.992187 119.718207 -113.69949 120.607585 -113.664225 121.779785 Z M -106.668403 118.299154 L -106.668403 120.156901 L -107.32997 120.156901 C -107.35395 119.824707 -107.443522 119.577148 -107.600098 119.415636 C -107.755968 119.253418 -107.982368 119.172309 -108.279297 119.172309 C -108.732802 119.172309 -109.090386 119.371202 -109.352051 119.769694 C -109.613715 120.168186 -109.744195 120.721137 -109.744195 121.427843 L -109.744195 123.889323 L -108.613607 123.889323 L -108.613607 124.598145 L -112.703613 124.598145 L -112.703613 123.889323 L -111.818468 123.889323 L -111.818468 119.078505 L -112.767795 119.078505 L -112.767795 118.369683 L -109.744195 118.369683 L -109.744195 119.476997 C -109.54107 119.04324 -109.272352 118.722331 -108.938748 118.512858 C -108.604438 118.304091 -108.195367 118.199707 -107.710829 118.199707 C -107.590224 118.199707 -107.442817 118.208171 -107.268609 118.225803 C -107.095106 118.243435 -106.894803 118.268121 -106.668403 118.299154 Z M -100.176161 120.771918 L -100.176161 123.889323 L -99.285373 123.889323 L -99.285373 124.598145 L -102.250434 124.598145 L -102.250434 123.806803 C -102.523383 124.135471 -102.828071 124.377387 -103.164497 124.533257 C -103.500217 124.689833 -103.883192 124.768121 -104.312717 124.768121 C -104.949599 124.768121 -105.438368 124.596734 -105.780436 124.255371 C -106.122504 123.913303 -106.293186 123.423828 -106.293186 122.787652 C -106.293186 122.087999 -106.047743 121.56467 -105.557563 121.21696 C -105.067383 120.869249 -104.328234 120.695747 -103.340115 120.695747 L -102.250434 120.695747 L -102.250434 120.326172 C -102.250434 119.822591 -102.369629 119.450901 -102.607313 119.210395 C -102.845703 118.969889 -103.215278 118.849989 -103.715332 118.849989 C -104.12934 118.849989 -104.448134 118.934625 -104.673123 119.104601 C -104.897407 119.274577 -105.056803 119.553168 -105.150608 119.93967 L -105.81288 119.93967 L -105.81288 118.598199 C -105.441895 118.464898 -105.056803 118.365451 -104.658312 118.299154 C -104.25982 118.232856 -103.840169 118.199707 -103.398655 118.199707 C -102.285699 118.199707 -101.469672 118.406359 -100.952691 118.820367 C -100.435004 119.23508 -100.176161 119.885362 -100.176161 120.771918 Z M -102.250434 122.640951 L -102.250434 121.392578 L -103.029785 121.392578 C -103.416287 121.392578 -103.713216 121.498372 -103.919868 121.709256 C -104.127224 121.920139 -104.230903 122.222711 -104.230903 122.617676 C -104.230903 123.011936 -104.155436 123.306749 -104.005208 123.502116 C -103.85498 123.697483 -103.625054 123.795519 -103.31684 123.795519 C -102.996636 123.795519 -102.738498 123.689724 -102.543132 123.478841 C -102.347765 123.267958 -102.250434 122.988661 -102.250434 122.640951 Z M -102.250434 122.640951 " transform="matrix(0,-5.538462,5.538462,0,0,318178.846154)"/>
<path style=" stroke:none;fill-rule:nonzero;fill:rgb(0%,0%,0%);fill-opacity:1;" d="M 1923.03125 318891.449219 L 1875.457031 318891.449219 L 1875.457031 318875.0625 C 1875.457031 318871.363281 1875.683594 318868.539062 1876.136719 318866.589844 C 1876.765625 318863.863281 1877.902344 318861.539062 1879.546875 318859.613281 C 1881.664062 318857.105469 1884.375 318855.226562 1887.675781 318853.984375 C 1890.972656 318852.738281 1894.742188 318852.117188 1898.984375 318852.117188 C 1902.597656 318852.117188 1905.800781 318852.539062 1908.589844 318853.382812 C 1911.382812 318854.226562 1913.691406 318855.308594 1915.519531 318856.628906 C 1917.347656 318857.949219 1918.785156 318859.390625 1919.835938 318860.960938 C 1920.882812 318862.527344 1921.679688 318864.421875 1922.21875 318866.640625 C 1922.761719 318868.855469 1923.03125 318871.40625 1923.03125 318874.28125 Z M 1917.417969 318885.152344 L 1917.417969 318874.996094 C 1917.417969 318871.859375 1917.125 318869.398438 1916.539062 318867.613281 C 1915.957031 318865.828125 1915.132812 318864.40625 1914.074219 318863.347656 C 1912.582031 318861.851562 1910.574219 318860.691406 1908.054688 318859.855469 C 1905.535156 318859.023438 1902.476562 318858.609375 1898.886719 318858.609375 C 1893.910156 318858.609375 1890.085938 318859.425781 1887.414062 318861.058594 C 1884.742188 318862.691406 1882.953125 318864.675781 1882.042969 318867.011719 C 1881.394531 318868.699219 1881.070312 318871.414062 1881.070312 318875.160156 L 1881.070312 318885.152344 Z M 1882.175781 318844.132812 L 1875.457031 318844.132812 L 1875.457031 318838.292969 L 1882.175781 318838.292969 Z M 1923.03125 318844.132812 L 1888.566406 318844.132812 L 1888.566406 318838.292969 L 1923.03125 318838.292969 Z M 1925.886719 318830.441406 L 1926.730469 318824.761719 C 1928.484375 318824.523438 1929.757812 318823.863281 1930.558594 318822.78125 C 1931.640625 318821.332031 1932.183594 318819.351562 1932.183594 318816.84375 C 1932.183594 318814.136719 1931.640625 318812.050781 1930.558594 318810.578125 C 1929.476562 318809.109375 1927.964844 318808.113281 1926.015625 318807.59375 C 1924.828125 318807.289062 1922.328125 318807.148438 1918.519531 318807.171875 C 1921.527344 318809.722656 1923.03125 318812.90625 1923.03125 318816.710938 C 1923.03125 318821.449219 1921.320312 318825.117188 1917.902344 318827.714844 C 1914.484375 318830.308594 1910.386719 318831.609375 1905.605469 318831.609375 C 1902.316406 318831.609375 1899.28125 318831.011719 1896.5 318829.824219 C 1893.722656 318828.632812 1891.574219 318826.90625 1890.058594 318824.648438 C 1888.546875 318822.386719 1887.789062 318819.730469 1887.789062 318816.679688 C 1887.789062 318812.613281 1889.433594 318809.257812 1892.722656 318806.621094 L 1888.566406 318806.621094 L 1888.566406 318801.234375 L 1918.359375 318801.234375 C 1923.722656 318801.234375 1927.527344 318801.777344 1929.765625 318802.871094 C 1932.003906 318803.964844 1933.773438 318805.695312 1935.070312 318808.0625 C 1936.367188 318810.433594 1937.019531 318813.347656 1937.019531 318816.808594 C 1937.019531 318820.921875 1936.09375 318824.242188 1934.242188 318826.773438 C 1932.394531 318829.304688 1929.609375 318830.527344 1925.886719 318830.441406 Z M 1905.183594 318825.605469 C 1909.703125 318825.605469 1913.003906 318824.707031 1915.082031 318822.910156 C 1917.15625 318821.113281 1918.195312 318818.863281 1918.195312 318816.160156 C 1918.195312 318813.476562 1917.164062 318811.226562 1915.097656 318809.410156 C 1913.03125 318807.59375 1909.789062 318806.683594 1905.378906 318806.683594 C 1901.160156 318806.683594 1897.976562 318807.621094 1895.835938 318809.492188 C 1893.695312 318811.363281 1892.625 318813.617188 1892.625 318816.257812 C 1892.625 318818.855469 1893.679688 318821.0625 1895.789062 318822.878906 C 1897.898438 318824.695312 1901.027344 318825.605469 1905.183594 318825.605469 Z M 1882.175781 318792.339844 L 1875.457031 318792.339844 L 1875.457031 318786.5 L 1882.175781 318786.5 Z M 1923.03125 318792.339844 L 1888.566406 318792.339844 L 1888.566406 318786.5 L 1923.03125 318786.5 Z M 1907.746094 318778.972656 L 1907.226562 318773.03125 C 1909.605469 318772.75 1911.558594 318772.097656 1913.085938 318771.070312 C 1914.609375 318770.042969 1915.84375 318768.445312 1916.785156 318766.28125 C 1917.726562 318764.117188 1918.195312 318761.683594 1918.195312 318758.980469 C 1918.195312 318756.578125 1917.839844 318754.457031 1917.125 318752.621094 C 1916.410156 318750.78125 1915.433594 318749.414062 1914.1875 318748.515625 C 1912.945312 318747.617188 1911.585938 318747.167969 1910.117188 318747.167969 C 1908.621094 318747.167969 1907.320312 318747.601562 1906.203125 318748.464844 C 1905.089844 318749.332031 1904.15625 318750.757812 1903.398438 318752.75 C 1902.898438 318754.027344 1902.125 318756.847656 1901.078125 318761.21875 C 1900.027344 318765.589844 1899.039062 318768.652344 1898.109375 318770.402344 C 1896.917969 318772.675781 1895.441406 318774.367188 1893.679688 318775.480469 C 1891.914062 318776.597656 1889.941406 318777.152344 1887.757812 318777.152344 C 1885.355469 318777.152344 1883.109375 318776.472656 1881.023438 318775.109375 C 1878.933594 318773.746094 1877.351562 318771.753906 1876.269531 318769.136719 C 1875.1875 318766.519531 1874.644531 318763.609375 1874.644531 318760.410156 C 1874.644531 318756.882812 1875.214844 318753.773438 1876.347656 318751.078125 C 1877.484375 318748.386719 1879.15625 318746.3125 1881.363281 318744.863281 C 1883.570312 318743.414062 1886.070312 318742.636719 1888.859375 318742.527344 L 1889.3125 318748.5625 C 1886.304688 318748.886719 1884.035156 318749.984375 1882.5 318751.855469 C 1880.960938 318753.730469 1880.195312 318756.492188 1880.195312 318760.148438 C 1880.195312 318763.957031 1880.890625 318766.730469 1882.289062 318768.472656 C 1883.683594 318770.214844 1885.367188 318771.085938 1887.335938 318771.085938 C 1889.042969 318771.085938 1890.449219 318770.46875 1891.554688 318769.234375 C 1892.65625 318768.023438 1893.785156 318764.859375 1894.945312 318759.742188 C 1896.101562 318754.625 1897.113281 318751.117188 1897.976562 318749.210938 C 1899.253906 318746.441406 1900.871094 318744.398438 1902.828125 318743.078125 C 1904.789062 318741.757812 1907.042969 318741.097656 1909.597656 318741.097656 C 1912.128906 318741.097656 1914.511719 318741.824219 1916.75 318743.273438 C 1918.992188 318744.722656 1920.734375 318746.804688 1921.976562 318749.519531 C 1923.21875 318752.234375 1923.84375 318755.292969 1923.84375 318758.6875 C 1923.84375 318762.992188 1923.214844 318766.601562 1921.960938 318769.511719 C 1920.707031 318772.421875 1918.816406 318774.703125 1916.296875 318776.359375 C 1913.777344 318778.011719 1910.925781 318778.882812 1907.746094 318778.972656 Z M 1923.03125 318733.179688 L 1875.457031 318733.179688 L 1875.457031 318727.339844 L 1892.527344 318727.339844 C 1889.367188 318724.613281 1887.789062 318721.175781 1887.789062 318717.019531 C 1887.789062 318714.46875 1888.292969 318712.25 1889.296875 318710.367188 C 1890.304688 318708.484375 1891.695312 318707.136719 1893.46875 318706.328125 C 1895.242188 318705.515625 1897.816406 318705.109375 1901.191406 318705.109375 L 1923.03125 318705.109375 L 1923.03125 318710.953125 L 1901.191406 318710.953125 C 1898.269531 318710.953125 1896.144531 318711.585938 1894.8125 318712.851562 C 1893.484375 318714.117188 1892.820312 318715.90625 1892.820312 318718.222656 C 1892.820312 318719.953125 1893.265625 318721.578125 1894.164062 318723.105469 C 1895.0625 318724.628906 1896.28125 318725.71875 1897.816406 318726.367188 C 1899.351562 318727.015625 1901.472656 318727.339844 1904.175781 318727.339844 L 1923.03125 318727.339844 Z M 1905.800781 318698.359375 C 1899.417969 318698.359375 1894.691406 318696.585938 1891.617188 318693.039062 C 1889.066406 318690.074219 1887.789062 318686.460938 1887.789062 318682.199219 C 1887.789062 318677.460938 1889.339844 318673.589844 1892.445312 318670.582031 C 1895.550781 318667.574219 1899.839844 318666.070312 1905.3125 318666.070312 C 1909.746094 318666.070312 1913.234375 318666.734375 1915.777344 318668.066406 C 1918.320312 318669.398438 1920.292969 318671.332031 1921.699219 318673.875 C 1923.105469 318676.417969 1923.808594 318679.191406 1923.808594 318682.199219 C 1923.808594 318687.023438 1922.261719 318690.921875 1919.167969 318693.898438 C 1916.074219 318696.871094 1911.617188 318698.359375 1905.800781 318698.359375 Z M 1905.800781 318692.355469 C 1910.210938 318692.355469 1913.515625 318691.394531 1915.714844 318689.46875 C 1917.910156 318687.542969 1919.007812 318685.121094 1919.007812 318682.199219 C 1919.007812 318679.300781 1917.902344 318676.886719 1915.695312 318674.960938 C 1913.492188 318673.035156 1910.125 318672.074219 1905.605469 318672.074219 C 1901.34375 318672.074219 1898.113281 318673.042969 1895.917969 318674.980469 C 1893.722656 318676.914062 1892.625 318679.320312 1892.625 318682.199219 C 1892.625 318685.121094 1893.714844 318687.542969 1895.902344 318689.46875 C 1898.085938 318691.394531 1901.386719 318692.355469 1905.800781 318692.355469 Z M 1917.804688 318646.4375 L 1922.964844 318645.59375 C 1923.3125 318647.238281 1923.484375 318648.707031 1923.484375 318650.007812 C 1923.484375 318652.128906 1923.148438 318653.769531 1922.480469 318654.941406 C 1921.808594 318656.109375 1920.925781 318656.929688 1919.835938 318657.40625 C 1918.742188 318657.882812 1916.445312 318658.121094 1912.9375 318658.121094 L 1893.109375 318658.121094 L 1893.109375 318662.402344 L 1888.566406 318662.402344 L 1888.566406 318658.121094 L 1880.03125 318658.121094 L 1876.527344 318652.3125 L 1888.566406 318652.3125 L 1888.566406 318646.4375 L 1893.109375 318646.4375 L 1893.109375 318652.3125 L 1913.261719 318652.3125 C 1914.929688 318652.3125 1916 318652.207031 1916.476562 318652.003906 C 1916.953125 318651.796875 1917.332031 318651.460938 1917.613281 318650.996094 C 1917.894531 318650.53125 1918.035156 318649.867188 1918.035156 318649 C 1918.035156 318648.351562 1917.957031 318647.496094 1917.804688 318646.4375 Z M 1972.8125 318792.796875 L 1974.402344 318786.5 C 1979.574219 318787.820312 1983.515625 318790.195312 1986.230469 318793.621094 C 1988.945312 318797.050781 1990.304688 318801.242188 1990.304688 318806.199219 C 1990.304688 318811.324219 1989.261719 318815.496094 1987.171875 318818.707031 C 1985.085938 318821.921875 1982.0625 318824.367188 1978.101562 318826.042969 C 1974.144531 318827.71875 1969.890625 318828.558594 1965.347656 318828.558594 C 1960.394531 318828.558594 1956.074219 318827.609375 1952.382812 318825.71875 C 1948.695312 318823.824219 1945.894531 318821.132812 1943.980469 318817.636719 C 1942.0625 318814.144531 1941.105469 318810.296875 1941.105469 318806.101562 C 1941.105469 318801.339844 1942.320312 318797.339844 1944.742188 318794.09375 C 1947.164062 318790.847656 1950.570312 318788.585938 1954.964844 318787.3125 L 1956.425781 318793.507812 C 1952.960938 318794.613281 1950.441406 318796.214844 1948.863281 318798.3125 C 1947.285156 318800.410156 1946.492188 318803.050781 1946.492188 318806.230469 C 1946.492188 318809.886719 1947.371094 318812.941406 1949.121094 318815.398438 C 1950.875 318817.855469 1953.226562 318819.578125 1956.179688 318820.574219 C 1959.132812 318821.570312 1962.179688 318822.066406 1965.316406 318822.066406 C 1969.363281 318822.066406 1972.894531 318821.476562 1975.910156 318820.296875 C 1978.929688 318819.121094 1981.183594 318817.285156 1982.679688 318814.796875 C 1984.171875 318812.308594 1984.917969 318809.617188 1984.917969 318806.71875 C 1984.917969 318803.191406 1983.898438 318800.207031 1981.867188 318797.761719 C 1979.832031 318795.316406 1976.816406 318793.660156 1972.8125 318792.796875 Z M 1953.570312 318750.769531 L 1954.023438 318756.578125 C 1951.730469 318757.097656 1950.0625 318757.832031 1949.023438 318758.785156 C 1947.359375 318760.363281 1946.527344 318762.3125 1946.527344 318764.628906 C 1946.527344 318766.488281 1947.046875 318768.121094 1948.085938 318769.527344 C 1949.425781 318771.367188 1951.382812 318772.816406 1953.957031 318773.875 C 1956.53125 318774.9375 1960.199219 318775.488281 1964.960938 318775.53125 C 1962.816406 318774.125 1961.226562 318772.40625 1960.1875 318770.371094 C 1959.148438 318768.335938 1958.632812 318766.207031 1958.632812 318763.976562 C 1958.632812 318760.082031 1960.0625 318756.769531 1962.929688 318754.03125 C 1965.796875 318751.292969 1969.503906 318749.925781 1974.046875 318749.925781 C 1977.03125 318749.925781 1979.804688 318750.570312 1982.371094 318751.855469 C 1984.933594 318753.144531 1986.898438 318754.914062 1988.257812 318757.164062 C 1989.621094 318759.414062 1990.304688 318761.964844 1990.304688 318764.820312 C 1990.304688 318769.691406 1988.515625 318773.660156 1984.933594 318776.730469 C 1981.351562 318779.804688 1975.453125 318781.339844 1967.230469 318781.339844 C 1958.035156 318781.339844 1951.351562 318779.640625 1947.175781 318776.246094 C 1943.539062 318773.28125 1941.722656 318769.289062 1941.722656 318764.269531 C 1941.722656 318760.527344 1942.773438 318757.460938 1944.871094 318755.070312 C 1946.96875 318752.679688 1949.867188 318751.246094 1953.570312 318750.769531 Z M 1974.078125 318774.621094 C 1976.089844 318774.621094 1978.015625 318774.195312 1979.855469 318773.339844 C 1981.695312 318772.484375 1983.09375 318771.289062 1984.058594 318769.753906 C 1985.019531 318768.21875 1985.5 318766.605469 1985.5 318764.917969 C 1985.5 318762.453125 1984.507812 318760.332031 1982.515625 318758.558594 C 1980.523438 318756.785156 1977.820312 318755.898438 1974.402344 318755.898438 C 1971.113281 318755.898438 1968.523438 318756.773438 1966.628906 318758.527344 C 1964.738281 318760.277344 1963.789062 318762.484375 1963.789062 318765.144531 C 1963.789062 318767.785156 1964.738281 318770.023438 1966.628906 318771.863281 C 1968.523438 318773.703125 1971.007812 318774.621094 1974.078125 318774.621094 Z M 1966.03125 318744.085938 C 1960.40625 318744.085938 1955.878906 318743.507812 1952.449219 318742.347656 C 1949.019531 318741.191406 1946.375 318739.472656 1944.515625 318737.1875 C 1942.652344 318734.90625 1941.722656 318732.035156 1941.722656 318728.574219 C 1941.722656 318726.019531 1942.238281 318723.78125 1943.265625 318721.855469 C 1944.292969 318719.929688 1945.773438 318718.339844 1947.710938 318717.085938 C 1949.648438 318715.832031 1952.003906 318714.847656 1954.785156 318714.132812 C 1957.566406 318713.417969 1961.3125 318713.0625 1966.03125 318713.0625 C 1971.613281 318713.0625 1976.117188 318713.632812 1979.546875 318714.78125 C 1982.976562 318715.925781 1985.625 318717.640625 1987.496094 318719.925781 C 1989.367188 318722.207031 1990.304688 318725.089844 1990.304688 318728.574219 C 1990.304688 318733.160156 1988.660156 318736.761719 1985.371094 318739.378906 C 1981.414062 318742.515625 1974.964844 318744.085938 1966.03125 318744.085938 Z M 1966.03125 318738.082031 C 1973.839844 318738.082031 1979.039062 318737.167969 1981.625 318735.339844 C 1984.207031 318733.511719 1985.5 318731.253906 1985.5 318728.574219 C 1985.5 318725.890625 1984.203125 318723.636719 1981.605469 318721.808594 C 1979.011719 318719.980469 1973.820312 318719.066406 1966.03125 318719.066406 C 1958.199219 318719.066406 1952.996094 318719.980469 1950.421875 318721.808594 C 1947.847656 318723.636719 1946.558594 318725.910156 1946.558594 318728.636719 C 1946.558594 318731.320312 1947.695312 318733.460938 1949.964844 318735.0625 C 1952.867188 318737.074219 1958.21875 318738.082031 1966.03125 318738.082031 Z M 1966.03125 318738.082031 "/>
<path style=" stroke:none;fill-rule:evenodd;fill:rgb(9.803922%,9.803922%,9.803922%);fill-opacity:0.9;" d="M 1123.625 318262.632812 L 1293.566406 318262.632812 C 1299.683594 318262.632812 1304.644531 318268.75 1304.644531 318273.710938 L 1304.644531 318388.261719 C 1304.644531 318394.378906 1299.683594 318399.339844 1293.566406 318399.339844 L 1123.625 318399.339844 C 1117.507812 318399.339844 1112.546875 318393.222656 1112.546875 318388.261719 L 1112.546875 318273.710938 C 1112.546875 318267.59375 1117.507812 318262.632812 1123.625 318262.632812 Z M 1123.625 318262.632812 "/>
<path style=" stroke:none;fill-rule:evenodd;fill:rgb(0%,0%,0%);fill-opacity:0.85;" d="M 1408.328125 318259.574219 C 1386.976562 318273.300781 1372.671875 318297.226562 1372.671875 318324.476562 C 1372.671875 318351.726562 1386.976562 318375.480469 1408.328125 318389.207031 L 1491.402344 318389.207031 C 1512.761719 318375.484375 1527.058594 318351.734375 1527.058594 318324.476562 C 1527.058594 318297.21875 1512.761719 318273.296875 1491.402344 318259.574219 Z M 1408.328125 318259.574219 "/>
<path style="fill:none;stroke-width:1;stroke-linecap:round;stroke-linejoin:round;stroke:rgb(0%,0%,0%);stroke-opacity:0.211008;stroke-miterlimit:4;" d="M 61.524306 53.125217 L 65.2264 53.125217 C 67.390245 53.125217 69.14502 80.739638 69.14502 103.125 C 69.14502 130.739421 67.390951 153.124783 65.2264 153.124783 L 61.524306 153.124783 C 59.36046 153.124783 57.605686 125.510362 57.605686 103.125 C 57.605686 75.510579 59.359755 53.125217 61.524306 53.125217 Z M 61.524306 53.125217 " transform="matrix(5.538462,0,0,5.538462,0,318178.846154)"/>
<path style=" stroke:none;fill-rule:nonzero;fill:rgb(0%,0%,0%);fill-opacity:0.517766;" d="M 188.03125 318859.730469 C 189.335938 318857.621094 191.605469 318856.015625 194.835938 318854.917969 C 198.066406 318853.820312 202.175781 318853.273438 207.164062 318853.273438 C 214.597656 318853.273438 220.246094 318854.460938 224.113281 318856.835938 C 227.980469 318859.214844 229.914062 318862.679688 229.914062 318867.238281 C 229.914062 318868.847656 229.605469 318870.457031 228.984375 318872.074219 C 228.367188 318873.6875 227.4375 318875.285156 226.199219 318876.863281 L 211.28125 318876.863281 C 213.089844 318875.355469 214.453125 318873.855469 215.375 318872.367188 C 216.296875 318870.878906 216.757812 318869.414062 216.757812 318867.972656 C 216.757812 318865.832031 215.871094 318864.195312 214.09375 318863.054688 C 212.320312 318861.914062 209.777344 318861.347656 206.460938 318861.347656 C 203.046875 318861.347656 200.460938 318861.929688 198.703125 318863.097656 C 196.945312 318864.265625 196.066406 318865.988281 196.066406 318868.265625 L 196.066406 318871.496094 L 183.609375 318871.496094 L 183.609375 318868.097656 C 183.609375 318866.070312 182.847656 318864.5625 181.324219 318863.570312 C 179.800781 318862.578125 177.484375 318862.082031 174.371094 318862.082031 C 171.492188 318862.082031 169.265625 318862.5625 167.691406 318863.527344 C 166.117188 318864.492188 165.332031 318865.855469 165.332031 318867.617188 C 165.332031 318868.917969 165.683594 318870.230469 166.386719 318871.558594 C 167.089844 318872.886719 168.125 318874.207031 169.5 318875.523438 L 155.335938 318875.523438 C 154.265625 318873.929688 153.460938 318872.347656 152.925781 318870.78125 C 152.390625 318869.21875 152.121094 318867.679688 152.121094 318866.167969 C 152.121094 318862.101562 153.722656 318859.058594 156.917969 318857.035156 C 160.117188 318855.015625 164.929688 318854.007812 171.355469 318854.007812 C 175.742188 318854.007812 179.332031 318854.488281 182.128906 318855.453125 C 184.925781 318856.417969 186.890625 318857.84375 188.03125 318859.730469 Z M 209.023438 318845.492188 L 209.023438 318837.945312 L 228.457031 318837.945312 L 228.457031 318845.492188 Z M 214.246094 318821.148438 L 214.246094 318807.371094 L 228.457031 318807.371094 L 228.457031 318830.121094 L 214.246094 318830.121094 L 190.089844 318818.695312 C 187.878906 318817.671875 185.71875 318816.917969 183.609375 318816.429688 C 181.5 318815.941406 179.308594 318815.695312 177.03125 318815.695312 C 173.515625 318815.695312 170.6875 318816.1875 168.542969 318817.171875 C 166.402344 318818.160156 165.332031 318819.46875 165.332031 318821.105469 C 165.332031 318822.363281 165.976562 318823.742188 167.265625 318825.234375 C 168.554688 318826.730469 170.46875 318828.332031 173.015625 318830.039062 L 156.542969 318830.039062 C 155.101562 318828.222656 154.003906 318826.425781 153.253906 318824.648438 C 152.5 318822.875 152.121094 318821.132812 152.121094 318819.425781 C 152.121094 318815.679688 154.097656 318812.769531 158.046875 318810.695312 C 162 318808.617188 167.507812 318807.578125 174.570312 318807.578125 C 178.65625 318807.578125 182.464844 318808.019531 185.996094 318808.902344 C 189.527344 318809.78125 194.257812 318811.632812 200.183594 318814.457031 Z M 214.246094 318821.148438 "/>
<path style=" stroke:none;fill-rule:nonzero;fill:rgb(0%,0%,0%);fill-opacity:0.685279;" d="M 118.125 318781.484375 L 118.125 318767.28125 L 147.152344 318757.425781 L 118.125 318747.511719 L 118.125 318733.335938 L 172.367188 318733.335938 L 172.367188 318743.886719 L 132.695312 318743.886719 L 161.941406 318753.859375 L 161.941406 318760.933594 L 132.695312 318770.902344 L 172.367188 318770.902344 L 172.367188 318781.484375 Z M 118.125 318722.351562 L 118.125 318692.234375 L 128.695312 318692.234375 L 128.695312 318711.191406 L 138.796875 318711.191406 L 138.796875 318693.363281 L 149.371094 318693.363281 L 149.371094 318711.191406 L 161.796875 318711.191406 L 161.796875 318691.597656 L 172.367188 318691.597656 L 172.367188 318722.351562 Z M 168.335938 318642.871094 C 170.03125 318645.652344 171.300781 318648.542969 172.148438 318651.539062 C 172.996094 318654.53125 173.421875 318657.625 173.421875 318660.8125 C 173.421875 318668.019531 170.894531 318673.730469 165.847656 318677.945312 C 160.796875 318682.15625 153.949219 318684.261719 145.300781 318684.261719 C 136.558594 318684.261719 129.679688 318682.117188 124.664062 318677.828125 C 119.652344 318673.539062 117.144531 318667.664062 117.144531 318660.203125 C 117.144531 318657.324219 117.484375 318654.566406 118.160156 318651.929688 C 118.839844 318649.289062 119.84375 318646.804688 121.175781 318644.464844 L 132.402344 318644.464844 C 130.683594 318646.878906 129.398438 318649.28125 128.550781 318651.667969 C 127.703125 318654.054688 127.28125 318656.445312 127.28125 318658.84375 C 127.28125 318663.285156 128.835938 318666.710938 131.949219 318669.117188 C 135.0625 318671.523438 139.511719 318672.726562 145.300781 318672.726562 C 151.039062 318672.726562 155.472656 318671.566406 158.597656 318669.25 C 161.722656 318666.929688 163.285156 318663.632812 163.285156 318659.363281 C 163.285156 318658.203125 163.195312 318657.125 163.011719 318656.132812 C 162.832031 318655.136719 162.546875 318654.242188 162.160156 318653.449219 L 151.621094 318653.449219 L 151.621094 318660.261719 L 142.25 318660.261719 L 142.25 318642.871094 Z M 162.484375 318606.8125 L 162.484375 318624.261719 L 172.367188 318627.015625 L 172.367188 318638.234375 L 118.125 318622.203125 L 118.125 318608.898438 L 172.367188 318592.867188 L 172.367188 318604.085938 Z M 152.421875 318621.476562 L 152.421875 318609.621094 L 130.839844 318615.535156 Z M 168.613281 318800.613281 L 168.613281 318782.09375 C 168.613281 318776.585938 170.144531 318772.359375 173.207031 318769.410156 C 176.273438 318766.464844 180.636719 318764.992188 186.304688 318764.992188 C 192 318764.992188 196.375 318766.464844 199.441406 318769.410156 C 202.503906 318772.359375 204.035156 318776.585938 204.035156 318782.09375 L 204.035156 318789.457031 L 222.855469 318789.457031 L 222.855469 318800.613281 Z M 178.75 318789.457031 L 193.898438 318789.457031 L 193.898438 318783.28125 C 193.898438 318781.117188 193.238281 318779.445312 191.917969 318778.265625 C 190.597656 318777.085938 188.726562 318776.5 186.304688 318776.5 C 183.882812 318776.5 182.019531 318777.085938 180.710938 318778.265625 C 179.402344 318779.445312 178.75 318781.117188 178.75 318783.28125 Z M 168.613281 318757.136719 L 168.613281 318745.976562 L 222.855469 318745.976562 L 222.855469 318757.136719 Z M 195.171875 318710.871094 L 222.855469 318695.859375 L 222.855469 318707.480469 L 204.328125 318717.597656 L 222.855469 318727.625 L 222.855469 318739.308594 L 195.171875 318724.292969 L 168.613281 318738.730469 L 168.613281 318727.074219 L 186.089844 318717.597656 L 168.613281 318708.148438 L 168.613281 318696.4375 Z M 168.613281 318689.191406 L 168.613281 318659.074219 L 179.183594 318659.074219 L 179.183594 318678.03125 L 189.285156 318678.03125 L 189.285156 318660.203125 L 199.859375 318660.203125 L 199.859375 318678.03125 L 212.285156 318678.03125 L 212.285156 318658.4375 L 222.855469 318658.4375 L 222.855469 318689.191406 Z M 168.613281 318648.609375 L 168.613281 318637.449219 L 212.285156 318637.449219 L 212.285156 318617.855469 L 222.855469 318617.855469 L 222.855469 318648.609375 Z M 170.320312 318580.695312 L 181.800781 318580.695312 C 180.46875 318583.070312 179.464844 318585.390625 178.785156 318587.652344 C 178.109375 318589.910156 177.769531 318592.046875 177.769531 318594.058594 C 177.769531 318596.722656 178.230469 318598.695312 179.148438 318599.96875 C 180.070312 318601.246094 181.5 318601.882812 183.4375 318601.882812 C 184.890625 318601.882812 186.023438 318601.453125 186.832031 318600.59375 C 187.644531 318599.734375 188.339844 318598.171875 188.921875 318595.914062 L 190.121094 318591.160156 C 191.332031 318586.347656 193.171875 318582.925781 195.644531 318580.898438 C 198.113281 318578.867188 201.625 318577.855469 206.179688 318577.855469 C 212.164062 318577.855469 216.613281 318579.269531 219.53125 318582.101562 C 222.449219 318584.929688 223.910156 318589.253906 223.910156 318595.070312 C 223.910156 318597.816406 223.582031 318600.570312 222.929688 318603.332031 C 222.273438 318606.097656 221.304688 318608.859375 220.023438 318611.621094 L 208.214844 318611.621094 C 210.054688 318608.859375 211.441406 318606.1875 212.375 318603.609375 C 213.304688 318601.027344 213.773438 318598.539062 213.773438 318596.144531 C 213.773438 318593.710938 213.265625 318591.84375 212.246094 318590.550781 C 211.230469 318589.253906 209.777344 318588.609375 207.886719 318588.609375 C 206.191406 318588.609375 204.882812 318589.046875 203.964844 318589.925781 C 203.042969 318590.804688 202.21875 318592.558594 201.492188 318595.1875 L 200.292969 318599.507812 C 199.132812 318603.835938 197.277344 318607 194.734375 318609 C 192.191406 318611 188.765625 318612 184.453125 318612 C 179.050781 318612 174.898438 318610.609375 171.992188 318607.824219 C 169.085938 318605.042969 167.632812 318601.042969 167.632812 318595.824219 C 167.632812 318593.449219 167.855469 318591.003906 168.304688 318588.492188 C 168.753906 318585.980469 169.425781 318583.378906 170.320312 318580.695312 Z M 170.320312 318580.695312 "/>
</g>
</svg>